<svg xmlns="http://www.w3.org/2000/svg" xmlns:xlink="http://www.w3.org/1999/xlink" viewBox="0 0 176.8 44"><defs><style>.cls-1{fill:none;}.cls-2{isolation:isolate;}.cls-3{fill:#fff;}.cls-4{clip-path:url(#clip-path);}.cls-5{fill:#9e1f23;}.cls-6{mix-blend-mode:multiply;fill:url(#radial-gradient);}.cls-7{fill:#89181a;}.cls-8{fill:#df2328;}.cls-9{fill:#f69322;}.cls-10{fill:#ba2228;}.cls-11{fill:#f39124;}</style><clipPath id="clip-path"><rect class="cls-1" x="4.2" y="1.8" width="40.5" height="40.49" rx="7.1"/></clipPath><radialGradient id="radial-gradient" cx="24.47" cy="22.01" r="20.24" gradientUnits="userSpaceOnUse"><stop offset="0.28" stop-color="#9e1f23" stop-opacity="0"/><stop offset="0.4" stop-color="#9e1f23" stop-opacity="0.02"/><stop offset="0.51" stop-color="#9e1f23" stop-opacity="0.09"/><stop offset="0.63" stop-color="#9e1f23" stop-opacity="0.21"/><stop offset="0.74" stop-color="#9e1f23" stop-opacity="0.38"/><stop offset="0.84" stop-color="#9e1f23" stop-opacity="0.6"/><stop offset="0.95" stop-color="#9e1f23" stop-opacity="0.86"/><stop offset="1" stop-color="#9e1f23"/></radialGradient></defs><g class="cls-2"><g id="expanded_logo" data-name="expanded logo"><path class="cls-3" d="M42,22.6a.4.4,0,1,0,0-.7c-.4,0-.4.7,0,.7Z"/><g class="cls-4"><rect class="cls-5" x="4.2" y="1.8" width="40.5" height="40.49"/><rect class="cls-6" x="4.2" y="1.8" width="40.5" height="40.49"/><rect class="cls-7" x="4.2" y="1.8" width="40.5" height="40.49"/><rect class="cls-6" x="4.2" y="1.8" width="40.5" height="40.49"/><path class="cls-8" d="M4.4,15.7a.7.7,0,0,0-.5-1,.8.8,0,0,0-1.1.5.8.8,0,0,0,.5,1.1A.9.9,0,0,0,4.4,15.7Z"/><path class="cls-8" d="M44.6,13.4a.9.9,0,0,0-.8-1.6,1,1,0,0,0-.4,1.2A.9.9,0,0,0,44.6,13.4Z"/><path class="cls-8" d="M3.5,21.9a.9.9,0,0,0-.9-.8.8.8,0,0,0-.9.8.9.9,0,1,0,1.8,0Z"/><path class="cls-8" d="M3.7,18.8a.8.8,0,0,0-.7-1,.8.8,0,0,0-1,.7.8.8,0,0,0,.7,1A.8.8,0,0,0,3.7,18.8Z"/><path class="cls-9" d="M3.2.5A.9.9,0,0,0,1.9.5.9.9,0,0,0,2,1.8a.9.9,0,0,0,1.2-.1A.9.9,0,0,0,3.2.5Z"/><path class="cls-8" d="M55.9,11.7a.9.9,0,0,0-.5,1.1.9.9,0,0,0,1,.6c.5-.2.8-.6.6-1.1A.9.9,0,0,0,55.9,11.7Z"/><path class="cls-8" d="M10.5,9a1.1,1.1,0,0,0-1.3.1.9.9,0,0,0,.2,1.3.9.9,0,0,0,1.2-.1A1.1,1.1,0,0,0,10.5,9Z"/><path class="cls-8" d="M7.2,10.1a1,1,0,0,0-.3-1.2.8.8,0,0,0-1.2.2A1,1,0,0,0,6,10.4,1,1,0,0,0,7.2,10.1Z"/><path class="cls-8" d="M52.9,11.6a1,1,0,0,0-.5,1.1.9.9,0,0,0,1.1.6.9.9,0,0,0,.6-1.1A1,1,0,0,0,52.9,11.6Z"/><path class="cls-8" d="M2.3,7.3A1,1,0,0,0,2,6.1a.9.9,0,0,0-1.2.2.9.9,0,0,0,.3,1.2A.8.8,0,0,0,2.3,7.3Z"/><path class="cls-8" d="M9.1,6.5a.8.8,0,0,0-1.2,0,.7.7,0,0,0,0,1.2.9.9,0,0,0,1.2,0A.9.9,0,0,0,9.1,6.5Z"/><path class="cls-8" d="M21.9,43.7a.9.9,0,1,0,1.7.1.9.9,0,0,0-.8-.9A.9.9,0,0,0,21.9,43.7Z"/><path class="cls-8" d="M14.1,44.4a.9.9,0,0,0,.5,1.2.9.9,0,0,0,1.1-.5.8.8,0,0,0-.4-1.1A.9.9,0,0,0,14.1,44.4Z"/><path class="cls-8" d="M19.3,44.1a.9.9,0,0,0,1.1-.6.8.8,0,0,0-.7-1,.8.8,0,0,0-1,.6A.7.7,0,0,0,19.3,44.1Z"/><path class="cls-9" d="M49.6,37.3a1,1,0,0,0,.3,1.2.9.9,0,0,0,1.2-.3.8.8,0,0,0-.3-1.2A.9.9,0,0,0,49.6,37.3Z"/><path class="cls-8" d="M2.7,28.6a.9.9,0,0,0,1.1.6.9.9,0,0,0,.6-1.1,1,1,0,0,0-1.1-.6A.9.9,0,0,0,2.7,28.6Z"/><path class="cls-8" d="M7.3,28.2a.9.9,0,0,0-1.1-.6.9.9,0,0,0-.5,1.1.9.9,0,0,0,1.1.6A.8.8,0,0,0,7.3,28.2Z"/><path class="cls-9" d="M51.1,34.5a.9.9,0,0,0,.4,1.1.8.8,0,0,0,1.2-.4.9.9,0,0,0-.4-1.2A.9.9,0,0,0,51.1,34.5Z"/><path class="cls-8" d="M4.4,30.6a.9.9,0,0,0-.5,1.2,1,1,0,0,0,1.2.4A.9.9,0,0,0,5.5,31,.8.8,0,0,0,4.4,30.6Z"/><path class="cls-9" d="M54.2,34.5a.9.9,0,1,0,1.1-.5A.8.8,0,0,0,54.2,34.5Z"/><path class="cls-10" d="M46.4,31.2a1,1,0,0,0,.5,1.1.8.8,0,0,0,1.1-.4.9.9,0,0,0-.4-1.2A1.1,1.1,0,0,0,46.4,31.2Z"/><path class="cls-8" d="M29.6-.1a.8.8,0,0,0-1,.6.9.9,0,0,0,.6,1.1A1,1,0,0,0,30.3.9.9.9,0,0,0,29.6-.1Z"/><path class="cls-8" d="M34.8-.4a.8.8,0,0,0-.5-1.1.8.8,0,0,0-1.1.4A1,1,0,0,0,33.7.1,1,1,0,0,0,34.8-.4Z"/><path class="cls-8" d="M14.3-.5a.8.8,0,0,0,1.1.5.8.8,0,0,0,.5-1.1.8.8,0,0,0-1.1-.5A.8.8,0,0,0,14.3-.5Z"/><path class="cls-8" d="M18.8.9a1,1,0,0,0,1.1.6.8.8,0,0,0,.6-1,.8.8,0,0,0-1-.7A.9.9,0,0,0,18.8.9Z"/><path class="cls-8" d="M20.4,3.4a.8.8,0,0,0,1,.7.9.9,0,0,0,.7-1,.8.8,0,0,0-.8-.7h-.2A.8.8,0,0,0,20.4,3.4Z"/><path class="cls-8" d="M23.7,3a.8.8,0,0,0,.8.8.8.8,0,0,0,.9-.8.8.8,0,0,0-.7-.9h-.1C24,2.1,23.6,2.5,23.7,3Z"/><path class="cls-8" d="M40.1,1.8a.8.8,0,0,0-1.2.2A.9.9,0,0,0,39,3.2,1,1,0,0,0,40.3,3,.8.8,0,0,0,40.1,1.8Z"/><path class="cls-8" d="M38.7,4.3a.9.9,0,0,0-1.2.1,1,1,0,0,0,.1,1.3.9.9,0,0,0,1.2-.2A.8.8,0,0,0,38.7,4.3Z"/><path class="cls-8" d="M37.3,0a.9.9,0,0,0-1.2.3,1,1,0,0,0,.4,1.2.8.8,0,0,0,1.1-.4A.7.7,0,0,0,37.3,0Z"/><path class="cls-8" d="M11.4,5.5a.8.8,0,1,0-1-1.3.8.8,0,0,0-.2,1.2A.8.8,0,0,0,11.4,5.5Z"/><path class="cls-5" d="M10,3.1a.8.8,0,0,0,.2-1.2A.8.8,0,0,0,9,1.7a.8.8,0,0,0-.2,1.2A.8.8,0,0,0,10,3.1Z"/><path class="cls-8" d="M7.5.4A.8.8,0,0,0,8.7.6.9.9,0,0,0,8.8-.6.8.8,0,0,0,7.6-.8.8.8,0,0,0,7.5.4Z"/><path class="cls-8" d="M47.5,28.3a.8.8,0,1,0,1.6.4.8.8,0,0,0-1.6-.4Z"/><path class="cls-8" d="M50.4,28.2a.9.9,0,0,0,.6,1.1.8.8,0,0,0,1-.6.8.8,0,0,0-.6-1.1A.8.8,0,0,0,50.4,28.2Z"/><path class="cls-8" d="M56.1,28.4a.8.8,0,0,0,.6,1,.9.9,0,0,0,1.1-.6.9.9,0,0,0-.7-1.1A1,1,0,0,0,56.1,28.4Z"/><path class="cls-8" d="M54.9,28.8a.9.9,0,0,0-1.7-.4.9.9,0,0,0,.6,1.1A.9.9,0,0,0,54.9,28.8Z"/><path class="cls-8" d="M51.1,22.1a.9.9,0,0,0,.8.9.9.9,0,0,0,.9-.9c0-.5-.4-.9-.8-.8A.9.9,0,0,0,51.1,22.1Z"/><path class="cls-8" d="M53.9,22.1a.9.9,0,0,0,.9.9.9.9,0,0,0,.8-.9c0-.5-.4-.9-.8-.8A.9.9,0,0,0,53.9,22.1Z"/><path class="cls-8" d="M45.5,22.1a1,1,0,0,0,.8.9.9.9,0,1,0,0-1.8A.9.9,0,0,0,45.5,22.1Z"/><path class="cls-8" d="M56.7,22.1a.9.9,0,0,0,.9.9,1.1,1.1,0,0,0,.9-.9,1.1,1.1,0,0,0-.9-.8A.9.9,0,0,0,56.7,22.1Z"/><path class="cls-8" d="M49.3,42.5a.9.9,0,0,0,.1,1.2.9.9,0,0,0,1.3-.1.8.8,0,0,0-.2-1.2A.9.9,0,0,0,49.3,42.5Z"/><path class="cls-8" d="M4.5,21.9a.9.9,0,1,0,1.8,0,1.1,1.1,0,0,0-.9-.9A.9.9,0,0,0,4.5,21.9Z"/><path class="cls-8" d="M49.5,31.2a.9.9,0,1,0,1.1-.5A.9.9,0,0,0,49.5,31.2Z"/><path class="cls-8" d="M39.8,37.6a.9.9,0,0,0,1.3-.1.8.8,0,0,0-.1-1.2.9.9,0,0,0-1.2,0A1.1,1.1,0,0,0,39.8,37.6Z"/><path class="cls-10" d="M48.2,34a1,1,0,0,0,.4,1.2.9.9,0,0,0,1.2-.4.8.8,0,0,0-.4-1.1A.9.9,0,0,0,48.2,34Z"/><path class="cls-8" d="M50.8.6A.8.8,0,0,0,49.6.5a.8.8,0,0,0-.1,1.2.9.9,0,0,0,1.2.1A.8.8,0,0,0,50.8.6Z"/><path class="cls-8" d="M47.2.7a.9.9,0,0,0-1.3,0,.9.9,0,0,0,0,1.2.9.9,0,0,0,1.2,0A.8.8,0,0,0,47.2.7Z"/><path class="cls-8" d="M52.8,3.3A1,1,0,0,0,51.6,3a.8.8,0,0,0-.2,1.2.8.8,0,0,0,1.1.3A.8.8,0,0,0,52.8,3.3Z"/><path class="cls-8" d="M46.3,3.9A.9.9,0,0,0,45,3.8.9.9,0,0,0,44.9,5a.9.9,0,0,0,1.2.1A.8.8,0,0,0,46.3,3.9Z"/><path class="cls-8" d="M45.1,14.8a.9.9,0,0,0,.5,1.7.8.8,0,0,0,.6-1.1A.9.9,0,0,0,45.1,14.8Z"/><path class="cls-9" d="M57.3,18a.9.9,0,0,0-.7,1,.9.9,0,0,0,.9.8,1,1,0,0,0,.8-1A.9.9,0,0,0,57.3,18Z"/><path class="cls-9" d="M53.8,18.9a.8.8,0,0,0,.9.8.8.8,0,0,0,.8-.9.9.9,0,0,0-1-.8A.8.8,0,0,0,53.8,18.9Z"/><path class="cls-8" d="M4.9,18.5c-.2.5.2.9.7,1a1,1,0,0,0,1-.7,1,1,0,0,0-.7-1A.7.7,0,0,0,4.9,18.5Z"/><path class="cls-8" d="M40,10.1a.8.8,0,0,0-.2-.8l-.6-.4a1.1,1.1,0,0,0-.7.3,1,1,0,0,0-.2.9l.2.3a.8.8,0,0,0,.7.3l.5-.2Z"/><path class="cls-8" d="M45.1,10.2a1,1,0,0,0,1.2.3.9.9,0,0,0,.4-1.2A1,1,0,0,0,45.5,9,1,1,0,0,0,45.1,10.2Z"/><path class="cls-8" d="M46.7,36.7a.9.9,0,0,0,1.4,1,.8.8,0,0,0-.3-1.2A.7.7,0,0,0,46.7,36.7Z"/><path class="cls-8" d="M7.3,43.4a1,1,0,0,0,.1,1.3.9.9,0,0,0,1.3-.2c.2-.4.2-1-.2-1.2A.9.9,0,0,0,7.3,43.4Z"/><path class="cls-8" d="M11.6,44.1a.9.9,0,0,0,1.2-.4.8.8,0,0,0-.3-1.1.9.9,0,1,0-.9,1.5Z"/><path class="cls-8" d="M14.1,38c0,.1,0,.1-.1.2v.3a.8.8,0,0,0,.4.7h.2c.1,0,.2.1.4,0a.6.6,0,0,0,.6-.4.9.9,0,0,0-.3-1.2A1,1,0,0,0,14.1,38Z"/><path class="cls-8" d="M33.2,42.1a.8.8,0,0,0-1.1-.5.8.8,0,0,0-.5,1.1.9.9,0,0,0,1.6-.6Z"/><path class="cls-8" d="M42.5,38.9a.9.9,0,0,0-1.2,0,.8.8,0,0,0-.1,1.2.9.9,0,0,0,1.3,0A.9.9,0,0,0,42.5,38.9Z"/><path class="cls-8" d="M43.9,41.5a.9.9,0,0,0-1.3,1.1.9.9,0,0,0,1.3.1A.9.9,0,0,0,43.9,41.5Z"/><path class="cls-8" d="M38.9,40.9a.8.8,0,0,0-.2,1.2.8.8,0,0,0,1.2.2.8.8,0,0,0,.2-1.2A.9.9,0,0,0,38.9,40.9Z"/><path class="cls-8" d="M3.8,33.8a.9.9,0,0,0-1.2-.3.8.8,0,0,0-.3,1.2.9.9,0,0,0,1.2.3A1,1,0,0,0,3.8,33.8Z"/><path class="cls-8" d="M7.7,37.4a.9.9,0,0,0,1.3,0,.9.9,0,0,0,0-1.2.8.8,0,0,0-1.2,0A.8.8,0,0,0,7.7,37.4Z"/><path class="cls-10" d="M47.6,13.5a.9.9,0,0,0,.5-1.2.8.8,0,0,0-1.1-.4.9.9,0,0,0-.5,1.1A1,1,0,0,0,47.6,13.5Z"/><path class="cls-10" d="M52.9,37.3a.9.9,0,0,0,.3,1.2.9.9,0,0,0,1.2-.4,1,1,0,0,0-.4-1.2A.8.8,0,0,0,52.9,37.3Z"/><path class="cls-10" d="M55.3,31.5a.9.9,0,1,0,1.1-.6A.9.9,0,0,0,55.3,31.5Z"/><path class="cls-10" d="M52.3,31.5a.9.9,0,0,0,.6,1.1.9.9,0,0,0,1.1-.5.9.9,0,0,0-.6-1.1A.9.9,0,0,0,52.3,31.5Z"/><path class="cls-10" d="M51.7,8.6a1,1,0,0,0-.5,1.2A.9.9,0,0,0,52.8,9,.8.8,0,0,0,51.7,8.6Z"/><path class="cls-10" d="M54.8,8.7a.8.8,0,0,0-.5,1.1,1,1,0,0,0,1.1.5.9.9,0,0,0,.5-1.2A.8.8,0,0,0,54.8,8.7Z"/><path class="cls-10" d="M53.3,5.8A.8.8,0,0,0,53,6.9a.8.8,0,0,0,1.1.4.9.9,0,1,0-.8-1.5Z"/><path class="cls-10" d="M48.1,25.2a.8.8,0,0,0,.7,1,.9.9,0,0,0,1-.8.8.8,0,0,0-.8-.9A.8.8,0,0,0,48.1,25.2Z"/><path class="cls-10" d="M56.6,25.3a.7.7,0,0,0,.7.9.8.8,0,0,0,1-.7,1,1,0,0,0-.8-1A.8.8,0,0,0,56.6,25.3Z"/><path class="cls-10" d="M55.4,25.5a.9.9,0,0,0-.7-1,.9.9,0,1,0-.2,1.8A.9.9,0,0,0,55.4,25.5Z"/><path class="cls-10" d="M48.3,22.1a1,1,0,0,0,.8.9.9.9,0,0,0,0-1.8A1,1,0,0,0,48.3,22.1Z"/><path class="cls-10" d="M50.9,25.2a.9.9,0,0,0,.8,1,.9.9,0,0,0,.9-.8.7.7,0,0,0-.7-.9A.9.9,0,0,0,50.9,25.2Z"/><path class="cls-10" d="M51.2,40a.9.9,0,0,0,.2,1.2.9.9,0,0,0,1.3-.2.9.9,0,0,0-.3-1.2A.8.8,0,0,0,51.2,40Z"/><path class="cls-10" d="M47.8,39.9a.8.8,0,0,0,.2,1.2.9.9,0,1,0-.2-1.2Z"/><path class="cls-10" d="M47.5,15.9a.9.9,0,0,0,1,.7.9.9,0,0,0,.7-1.1.9.9,0,0,0-1.1-.6A.9.9,0,0,0,47.5,15.9Z"/><path class="cls-10" d="M52.1,15.6A.8.8,0,0,0,51,15a.8.8,0,0,0-.6,1,.9.9,0,0,0,1,.6A.8.8,0,0,0,52.1,15.6Z"/><path class="cls-10" d="M56.8,14.8a.9.9,0,1,0,.3,1.7.8.8,0,0,0,.7-1A.8.8,0,0,0,56.8,14.8Z"/><path class="cls-10" d="M52.7,18.8a.8.8,0,0,0-1-.7.9.9,0,0,0-.8.9,1,1,0,0,0,1,.8A1.1,1.1,0,0,0,52.7,18.8Z"/><path class="cls-10" d="M48.1,19a.9.9,0,0,0,1,.7.7.7,0,0,0,.7-.9.9.9,0,0,0-1-.8A1,1,0,0,0,48.1,19Z"/><path class="cls-10" d="M46,18a.8.8,0,0,0-.7,1,.8.8,0,0,0,.9.7.9.9,0,0,0,.8-1A.9.9,0,0,0,46,18Z"/><path class="cls-10" d="M49.9,9.4A1,1,0,0,0,48.7,9a1,1,0,0,0-.4,1.2,1,1,0,0,0,1.2.4A1,1,0,0,0,49.9,9.4Z"/><path class="cls-10" d="M53.2,15.8a1,1,0,0,0,1.1.7.9.9,0,0,0,.6-1.1.8.8,0,0,0-1-.6A.8.8,0,0,0,53.2,15.8Z"/><path class="cls-10" d="M51.2,12.4a1,1,0,0,0-1.2-.5,1,1,0,0,0-.5,1.1.9.9,0,0,0,1.1.5A.9.9,0,0,0,51.2,12.4Z"/><path class="cls-10" d="M40.3,13a.9.9,0,0,0,1.2.3c.1,0,.1-.1.2-.2a.9.9,0,0,0,.1-1,.9.9,0,0,0-.7-.4h-.5A1,1,0,0,0,40.3,13Z"/><path class="cls-10" d="M15.6,42a.8.8,0,0,0,.5,1.1.8.8,0,0,0,1.1-.5.9.9,0,0,0-.5-1.1A1,1,0,0,0,15.6,42Z"/><path class="cls-10" d="M25.1,43.9a1.1,1.1,0,0,0,1,.8,1,1,0,0,0,.8-1,1.1,1.1,0,0,0-.9-.8A1.1,1.1,0,0,0,25.1,43.9Z"/><path class="cls-10" d="M24.4,41.9a.9.9,0,0,0,.9-.9h0a1,1,0,0,0-.9-.7.9.9,0,0,0-.9.8A.9.9,0,0,0,24.4,41.9Z"/><path class="cls-10" d="M18.7,40.2a.8.8,0,0,0-.5-1.1.9.9,0,0,0-1.2.5,1,1,0,0,0,.6,1.1A.8.8,0,0,0,18.7,40.2Z"/><path class="cls-10" d="M20.9,41.6a.9.9,0,0,0,1.1-.7,1,1,0,0,0-.8-1,.9.9,0,1,0-.3,1.7Z"/><path class="cls-10" d="M40.2,31.2a1,1,0,0,0,.3,1.2H41c.3,0,.5-.2.7-.5a.8.8,0,0,0-.1-1l-.2-.2A1,1,0,0,0,40.2,31.2Z"/><path class="cls-10" d="M43.4,31.2a.8.8,0,0,0,.4,1.1.7.7,0,0,0,1.1-.3.9.9,0,1,0-1.5-.8Z"/><path class="cls-10" d="M45.2,25.2a1,1,0,0,0,.7,1,.9.9,0,0,0,1.1-.7.9.9,0,0,0-.8-1A.9.9,0,0,0,45.2,25.2Z"/><path class="cls-10" d="M44.1,25.5h0a.9.9,0,0,0-.7-.9h-.2a.8.8,0,0,0-.8.7.8.8,0,0,0,.2.8l.5.3h.1A.9.9,0,0,0,44.1,25.5Z"/><path class="cls-10" d="M44.5,28.3a.9.9,0,1,0,1.7.5.9.9,0,0,0-.6-1.1A.9.9,0,0,0,44.5,28.3Z"/><path class="cls-10" d="M43.2,28.9a.8.8,0,0,0-.5-1.1h-.4a1.1,1.1,0,0,0-.7.6.7.7,0,0,0,.2.9.2.2,0,0,0,.2.2h.4A.9.9,0,0,0,43.2,28.9Z"/><path class="cls-10" d="M42.7,21.9v.2a.9.9,0,0,0,.8.9h.4a.9.9,0,0,0,0-1.6h-.4A.8.8,0,0,0,42.7,21.9Z"/><path class="cls-10" d="M45.8,43.5a.8.8,0,0,0,1.2,0,.8.8,0,0,0,0-1.2.9.9,0,0,0-1.2,0A.7.7,0,0,0,45.8,43.5Z"/><path class="cls-10" d="M44.9,40.4a.9.9,0,1,0-.1-1.2A.8.8,0,0,0,44.9,40.4Z"/><path class="cls-9" d="M41.8,33.9a.9.9,0,0,0,1.4,1,.9.9,0,1,0-1.4-1Z"/><path class="cls-10" d="M46.6,34.9a.8.8,0,0,0-.4-1.2.8.8,0,0,0-1.1.3.9.9,0,0,0,.3,1.2A1,1,0,0,0,46.6,34.9Z"/><path class="cls-10" d="M38.4,33.8a.2.2,0,0,0-.2.2v.4a1.4,1.4,0,0,0,.2.6.9.9,0,0,0,1,.1l.3-.2a.9.9,0,0,0-.1-1.3l-.5-.2h-.5Z"/><path class="cls-10" d="M43.3,36.6a.9.9,0,0,0,1.4,1,.9.9,0,1,0-1.4-1Z"/><path class="cls-10" d="M36,36.1a.8.8,0,0,0,0,1.1.8.8,0,0,0,1.2.1.8.8,0,0,0,.1-1.2.8.8,0,0,0-1.2-.1Z"/><path class="cls-10" d="M44.8,6.6a.9.9,0,0,0-1.4,1,.8.8,0,0,0,1.2.2A.8.8,0,0,0,44.8,6.6Z"/><path class="cls-10" d="M42.7,18.2a.9.9,0,0,0-.3.7,1.1,1.1,0,0,0,.8.8h.2a1,1,0,0,0,.7-.9v-.2a.8.8,0,0,0-.8-.7h-.2C42.9,17.9,42.8,18,42.7,18.2Z"/><path class="cls-10" d="M41.6,15.9a.9.9,0,0,0,1.1.5.8.8,0,0,0,.5-1.1.8.8,0,0,0-1.1-.6A1,1,0,0,0,41.6,15.9Z"/><path class="cls-10" d="M30.1,43.1a.9.9,0,0,0-1-.6.8.8,0,0,0-.7,1,.9.9,0,0,0,1,.7A.9.9,0,0,0,30.1,43.1Z"/><path class="cls-10" d="M12.7,40.4a.9.9,0,0,0,.3,1.2.8.8,0,0,0,1.2-.3.9.9,0,0,0-1.5-.9Z"/><path class="cls-10" d="M34.6,44.5a.9.9,0,1,0-1.6.6.9.9,0,0,0,1.2.5A.8.8,0,0,0,34.6,44.5Z"/><path class="cls-10" d="M28.6,40.6a1,1,0,0,0-1-.7,1,1,0,0,0-.8,1,.9.9,0,0,0,1.1.7A.8.8,0,0,0,28.6,40.6Z"/><path class="cls-10" d="M31.8,39.6a1.1,1.1,0,0,0-1.2-.5.9.9,0,0,0-.5,1.1.9.9,0,0,0,1.1.6A1,1,0,0,0,31.8,39.6Z"/><path class="cls-10" d="M37.5,38.5a.9.9,0,0,0-.2,1.2.9.9,0,0,0,1.3.1.9.9,0,1,0-1.1-1.3Z"/><path class="cls-10" d="M34.3,37.7a1.1,1.1,0,0,0-.8.1.7.7,0,0,0-.4.8.6.6,0,0,0,.1.4.8.8,0,0,0,1.2.3l.3-.2a.9.9,0,0,0,0-1A.8.8,0,0,0,34.3,37.7Z"/><path class="cls-10" d="M41.5,43.6a.9.9,0,1,0-.2,1.2A.8.8,0,0,0,41.5,43.6Z"/><path class="cls-10" d="M36.3,42.7a.8.8,0,0,0-.3,1.1.8.8,0,0,0,1.2.4,1,1,0,0,0,.3-1.2A.9.9,0,0,0,36.3,42.7Z"/><path class="cls-10" d="M34.9,40.2a1,1,0,0,0-.3,1.2.8.8,0,0,0,1.2.3.9.9,0,0,0,.3-1.2A1,1,0,0,0,34.9,40.2Z"/><path class="cls-10" d="M1.5,15.8a.9.9,0,0,0-.6-1.1.9.9,0,0,0-1.1.6.9.9,0,0,0,.6,1.1A.9.9,0,0,0,1.5,15.8Z"/><path class="cls-9" d="M8.7,12.9a.8.8,0,0,0-.2-1.2.9.9,0,0,0-1.3.3v.2a.4.4,0,0,0-.1.3.8.8,0,0,0,.5.7A.8.8,0,0,0,8.7,12.9Z"/><path class="cls-10" d="M.6,21.9c.1-.4-.3-.8-.8-.8a.8.8,0,0,0-.9.8.9.9,0,0,0,.9.9A.8.8,0,0,0,.6,21.9Z"/><path class="cls-10" d="M.9,18.8a1.1,1.1,0,0,0-.8-1,.9.9,0,0,0-.9.8.8.8,0,0,0,.7,1A1,1,0,0,0,.9,18.8Z"/><path class="cls-10" d="M4,3.6a.8.8,0,0,0-1.2.1.9.9,0,0,0,.1,1.2.8.8,0,0,0,1.2-.1A.8.8,0,0,0,4,3.6Z"/><path class="cls-10" d="M1.1,4.1A.9.9,0,0,0,1,2.9a.9.9,0,0,0-1.3.2A.8.8,0,0,0-.1,4.3.8.8,0,0,0,1.1,4.1Z"/><path class="cls-10" d="M2.5,12.8A.8.8,0,0,0,2,11.7a.8.8,0,0,0-1.1.4.9.9,0,0,0,.5,1.2A1,1,0,0,0,2.5,12.8Z"/><path class="cls-10" d="M5.6,12.8a.8.8,0,0,0-.4-1.1.9.9,0,1,0-.8,1.5A.9.9,0,0,0,5.6,12.8Z"/><path class="cls-10" d="M5.6,7.5a1.1,1.1,0,0,0-.1-1.3.8.8,0,0,0-1.2.2.8.8,0,0,0,.1,1.2A.9.9,0,0,0,5.6,7.5Z"/><path class="cls-10" d="M2.4,9.2a.7.7,0,0,0,.3,1.1A.8.8,0,0,0,3.9,10a.8.8,0,0,0-.3-1.1A.8.8,0,0,0,2.4,9.2Z"/><path class="cls-10" d="M13,6.8h-.2a.8.8,0,0,0-1.1,0A.9.9,0,0,0,11.6,8a.9.9,0,0,0,1.2,0A.8.8,0,0,0,13,6.8Z"/><path class="cls-10" d="M.7,10A.9.9,0,0,0,.3,8.8a.8.8,0,0,0-1.1.4.8.8,0,0,0,.4,1.2A.8.8,0,0,0,.7,10Z"/><path class="cls-10" d="M2,25.3A.8.8,0,0,0,3,26c.4,0,.7-.5.7-.9a1,1,0,0,0-1-.8A.8.8,0,0,0,2,25.3Z"/><path class="cls-10" d="M.4,27.5a.7.7,0,0,0-.6,1,.7.7,0,0,0,1,.6.7.7,0,0,0,.6-1A.8.8,0,0,0,.4,27.5Z"/><path class="cls-10" d="M-.9,25.2a.9.9,0,0,0,1,.8.8.8,0,0,0,.7-1,.7.7,0,0,0-.9-.7A.8.8,0,0,0-.9,25.2Z"/><path class="cls-10" d="M1.3,30.6a.8.8,0,0,0-.5,1.1.9.9,0,0,0,1.2.4A.8.8,0,0,0,2.4,31,.8.8,0,0,0,1.3,30.6Z"/><path class="cls-9" d="M8.7,31a1,1,0,0,0-.9-.4H7.5a.8.8,0,0,0-.3,1.2.8.8,0,0,0,1.2.3A.9.9,0,0,0,8.7,31Z"/><path class="cls-10" d="M31.9,4.5a.9.9,0,0,0-1.7-.7.9.9,0,0,0,.6,1.1A.8.8,0,0,0,31.9,4.5Z"/><path class="cls-10" d="M33.4,2A.9.9,0,0,0,32.9.9a.9.9,0,0,0-1.2.5,1,1,0,0,0,.5,1.1A.9.9,0,0,0,33.4,2Z"/><path class="cls-10" d="M28,2.4a.8.8,0,0,0-1,.7v.2a.8.8,0,0,0,.7.8h.2a1,1,0,0,0,.8-.5V3.4A.9.9,0,0,0,28,2.4Z"/><path class="cls-10" d="M25.3.2a1,1,0,0,0,.8.9,1,1,0,0,0,1-.8.8.8,0,0,0-.8-.9A.8.8,0,0,0,25.3.2Z"/><path class="cls-10" d="M22.1.3a.8.8,0,0,0,.9.8,1.1,1.1,0,0,0,.8-.9.8.8,0,0,0-.9-.8A.8.8,0,0,0,22.1.3Z"/><path class="cls-10" d="M15.7,2a.9.9,0,0,0,1.2.4.9.9,0,0,0,.5-1.1A1,1,0,0,0,16.2.8,1.1,1.1,0,0,0,15.7,2Z"/><path class="cls-10" d="M17.2,4.4a.9.9,0,0,0,1.1.5.9.9,0,0,0,.6-1.1.9.9,0,0,0-1.2-.5A.8.8,0,0,0,17.2,4.4Z"/><path class="cls-10" d="M50,5.8a.7.7,0,0,0-.2,1.1.8.8,0,0,0,1.1.4.8.8,0,0,0,.3-1.2A.8.8,0,0,0,50,5.8Z"/><path class="cls-10" d="M36.2,3.6a.8.8,0,0,0-.3-1.2.8.8,0,0,0-1.2.3A1.1,1.1,0,0,0,35,3.9.9.9,0,0,0,36.2,3.6Z"/><path class="cls-9" d="M42.6,4a.9.9,0,0,0-1.2,0,.9.9,0,0,0,0,1.2.8.8,0,0,0,1.2.1A.9.9,0,0,0,42.6,4Z"/><path class="cls-10" d="M44,1.5a.8.8,0,0,0-1.2,0,.9.9,0,0,0,0,1.2.8.8,0,0,0,1.2,0A.8.8,0,0,0,44,1.5Z"/><path class="cls-10" d="M41.7.6a.8.8,0,0,0-.2-1.2.9.9,0,0,0-1.2.1A.8.8,0,0,0,40.5.7.9.9,0,0,0,41.7.6Z"/><path class="cls-10" d="M34.8,6a.8.8,0,0,0-.3-1.2.8.8,0,0,0-1.2.3.9.9,0,0,0,.2,1.1h.1A.9.9,0,0,0,34.8,6Z"/><path class="cls-10" d="M6.5,5.1a.9.9,0,0,0,1.2,0,.9.9,0,0,0,0-1.2.8.8,0,0,0-1.2,0A.7.7,0,0,0,6.5,5.1Z"/><path class="cls-10" d="M14,3.8a1,1,0,0,0,.4-1.2.8.8,0,0,0-1.2-.3.8.8,0,0,0-.3,1.2A.8.8,0,0,0,14,3.8Z"/><path class="cls-10" d="M5.1,2.6a.9.9,0,0,0,1.2,0,.9.9,0,0,0,0-1.2.8.8,0,0,0-1.2-.1A.9.9,0,0,0,5.1,2.6Z"/><path class="cls-10" d="M15.4,6.2a.8.8,0,0,0,.4-1.1.9.9,0,0,0-1.2-.4.9.9,0,0,0-.4,1.2A1,1,0,0,0,15.4,6.2Z"/><path class="cls-10" d="M12.6,1.4A1,1,0,0,0,13,.2a.9.9,0,0,0-1.2-.3A.7.7,0,0,0,11.5,1,.8.8,0,0,0,12.6,1.4Z"/><path class="cls-10" d="M6.5,25.1a.8.8,0,0,0-1-.7.8.8,0,0,0-.7,1,.9.9,0,0,0,1,.7A.8.8,0,0,0,6.5,25.1Z"/><path class="cls-10" d="M6.3,21.9a.8.8,0,0,0-.8-.8.8.8,0,0,0-.9.8.9.9,0,0,0,.9.9A.9.9,0,0,0,6.3,21.9Z"/><path class="cls-10" d="M48.2,6.5A.8.8,0,0,0,47,6.3a.8.8,0,0,0-.2,1.2.9.9,0,1,0,1.4-1Z"/><path class="cls-10" d="M49.4,3.3a.9.9,0,0,0-1.3-.2A.9.9,0,0,0,48,4.3a.9.9,0,1,0,1.4-1Z"/><path class="cls-10" d="M41.2,6.6a.8.8,0,0,0-1.2,0,.8.8,0,0,0-.1,1.2.9.9,0,0,0,1.2.1A.9.9,0,0,0,41.2,6.6Z"/><path class="cls-9" d="M37.3,6.8h-.6a.7.7,0,0,0-.6.3,1,1,0,0,0-.1.9l.2.3a.9.9,0,0,0,1.1.1h.2A.9.9,0,0,0,37.3,6.8Z"/><path class="cls-10" d="M43.3,9.3a.8.8,0,0,0-1.2-.2.8.8,0,0,0-.2,1.2.9.9,0,0,0,1.2.2A.8.8,0,0,0,43.3,9.3Z"/><path class="cls-10" d="M5.8,15.1a.9.9,0,0,0,.5,1.2,1,1,0,0,0,1.1-.6.9.9,0,0,0-.5-1.1A.8.8,0,0,0,5.8,15.1Z"/><path class="cls-10" d="M4.9,42.5a.9.9,0,0,0,1.3,0,.9.9,0,0,0-1.3-1.2A.9.9,0,0,0,4.9,42.5Z"/><path class="cls-10" d="M6.3,40a1.1,1.1,0,0,0,1.3,0,.9.9,0,0,0,0-1.2.7.7,0,0,0-1.2,0A.8.8,0,0,0,6.3,40Z"/><path class="cls-10" d="M10.2,39.7a.9.9,0,0,0,1.3-.1.9.9,0,0,0-.2-1.2.9.9,0,1,0-1.1,1.3Z"/><path class="cls-10" d="M8.8,42.2a.9.9,0,0,0,1.3-.2,1.1,1.1,0,0,0-.2-1.2.9.9,0,0,0-1.1,1.4Z"/><path class="cls-10" d="M5.6,34.7c.3.4.9.6,1.2.3a1,1,0,0,0,.3-1.2,1,1,0,0,0-1.2-.3A.9.9,0,0,0,5.6,34.7Z"/><path class="cls-10" d="M10.5,33.6a.9.9,0,0,0-1.2-.1c-.2.1-.3.4-.4.6s.1.3.1.5.1.1.1.2a1.1,1.1,0,0,0,1.3.1A1.1,1.1,0,0,0,10.5,33.6Z"/><path class="cls-10" d="M1.8,43.3a.8.8,0,0,0,1.2.1,1.1,1.1,0,0,0,0-1.3.9.9,0,0,0-1.2,0A.7.7,0,0,0,1.8,43.3Z"/><path class="cls-10" d="M2.7,40.1a.8.8,0,0,0,1.2.1A.8.8,0,0,0,4,39a.9.9,0,0,0-1.2-.1A.8.8,0,0,0,2.7,40.1Z"/><path class="cls-10" d="M-.4,40.8a.9.9,0,0,0,1.2.1A.8.8,0,0,0,1,39.7a.8.8,0,0,0-1.2-.2A.9.9,0,0,0-.4,40.8Z"/><path class="cls-10" d="M.7,37.5a.8.8,0,0,0,1.2.2,1,1,0,0,0,.3-1.2A.9.9,0,0,0,1,36.3.9.9,0,0,0,.7,37.5Z"/><path class="cls-10" d="M-.9,34.6A.8.8,0,0,0,.2,35a.8.8,0,0,0,.4-1.1.8.8,0,0,0-1.1-.4A.7.7,0,0,0-.9,34.6Z"/><path class="cls-10" d="M4.1,37.5a.9.9,0,0,0,1.3.1.9.9,0,0,0,.1-1.2,1.1,1.1,0,0,0-1.2-.2A.9.9,0,0,0,4.1,37.5Z"/><path class="cls-9" d="M11.6,37.2c.4.3,1,.3,1.2-.1a.9.9,0,1,0-1.2.1Z"/><rect class="cls-3" x="21.2" y="15.6" width="6.5" height="20.22"/><path class="cls-3" d="M29,15.6V35.8a3.6,3.6,0,0,0,3.1-3.5V19A3.5,3.5,0,0,0,29,15.6"/><path class="cls-3" d="M19.9,15.6a3.4,3.4,0,0,0-3,3.4V32.3a3.5,3.5,0,0,0,3,3.5Z"/><path class="cls-11" d="M21,38.3h-.9a.2.2,0,0,1-.2-.2V36.5a.2.2,0,0,1,.2-.2H21a.2.2,0,0,1,.2.2v1.6a.2.2,0,0,1-.2.2"/><path class="cls-11" d="M28.8,38.3h-.9a.2.2,0,0,1-.2-.2V36.5a.2.2,0,0,1,.2-.2h.9a.2.2,0,0,1,.2.2v1.6a.2.2,0,0,1-.2.2"/><path class="cls-3" d="M26.2,5.7H22.7a1.1,1.1,0,0,0-1,1v8.9h.8V6.7h3.9v8.9h.8V6.7a1,1,0,0,0-1-1"/><rect class="cls-11" x="22.4" y="17.8" width="4.2" height="0.81"/></g><path d="M57.9,23.7a9,9,0,0,1-.3,2.5,5,5,0,0,1-1.1,1.9,4.8,4.8,0,0,1-1.6,1.2,5.9,5.9,0,0,1-2.3.4H51.4l-1.3-.2.2-1.8a.5.5,0,0,1,.2-.4L51,27h1.2l1.2-.2a1.6,1.6,0,0,0,.8-.6,2.3,2.3,0,0,0,.5-1,7,7,0,0,0,.2-1.6V13.3h3Z"/><path d="M69.8,29.5H67.9a1.1,1.1,0,0,1-.3-.5l-.2-.8-.9.7-.9.5-.9.3H63.6l-1.4-.2a2.4,2.4,0,0,1-1.1-.6,3.3,3.3,0,0,1-.6-1,2.8,2.8,0,0,1-.3-1.3,2,2,0,0,1,.4-1.3,4,4,0,0,1,1.1-1.2,7.1,7.1,0,0,1,2.1-.8,14.9,14.9,0,0,1,3.3-.4v-.6a3,3,0,0,0-.5-1.8,2,2,0,0,0-1.4-.5H64.1l-.8.4-.6.3-.6.2h-.5a.5.5,0,0,1-.3-.4l-.6-.9a7.2,7.2,0,0,1,4.8-1.8A4.3,4.3,0,0,1,68.7,19a5.3,5.3,0,0,1,.8,1.5,4.7,4.7,0,0,1,.3,1.7Zm-5.4-1.7h.8l.7-.2.6-.4.6-.5v-2l-2,.2a3.3,3.3,0,0,0-1.3.4,1,1,0,0,0-.7.5,1,1,0,0,0-.2.7,1.2,1.2,0,0,0,.4,1.1A2,2,0,0,0,64.4,27.8Z"/><path d="M80.6,19.2a1.1,1.1,0,0,1-.1.5c-.1.2-.1.4-.2.5l-5.5,7.2h5.7v2.1H71.6V28.4a.9.9,0,0,1,.1-.5c0-.2.1-.3.2-.5l5.6-7.3H71.9V18h8.7Z"/><path d="M90.9,19.2a1.1,1.1,0,0,1-.1.5.8.8,0,0,1-.2.5l-5.5,7.2h5.7v2.1H81.9V28.4a.9.9,0,0,1,.1-.5c0-.2.1-.3.3-.5l5.5-7.3H82.2V18h8.7Z"/><path d="M105.7,23.5l.3.8.3-.8.4-.7,4.8-9c0-.1.1-.2.2-.3h3.1V29.5h-2.7V18.4c0-.2.1-.5.1-.7l-4.9,9.2a1.2,1.2,0,0,1-.5.5.8.8,0,0,1-.6.2h-.4l-.6-.2a1.2,1.2,0,0,1-.5-.5l-4.9-9.2V29.5H97.2V13.3h3.1l.2.3,4.8,9A2.5,2.5,0,0,1,105.7,23.5Z"/><path d="M122.6,17.8a8.5,8.5,0,0,1,2.3.4,5.7,5.7,0,0,1,1.8,1.2,5.2,5.2,0,0,1,1.2,1.9,8.6,8.6,0,0,1,.4,2.4,8.7,8.7,0,0,1-.4,2.5,6.2,6.2,0,0,1-1.2,1.9,5.7,5.7,0,0,1-1.8,1.2,7.1,7.1,0,0,1-4.7,0,5.7,5.7,0,0,1-1.8-1.2,5.9,5.9,0,0,1-1.1-1.9,6.2,6.2,0,0,1-.4-2.5,6.1,6.1,0,0,1,.4-2.4,5,5,0,0,1,1.1-1.9,5.7,5.7,0,0,1,1.8-1.2A8.6,8.6,0,0,1,122.6,17.8Zm0,9.8a2.7,2.7,0,0,0,2.1-1,4.7,4.7,0,0,0,.7-2.8,4.8,4.8,0,0,0-.7-2.9,2.7,2.7,0,0,0-2.1-1,2.7,2.7,0,0,0-2.2,1,5.6,5.6,0,0,0-.7,2.9,5.5,5.5,0,0,0,.7,2.8A2.7,2.7,0,0,0,122.6,27.6Z"/><path d="M137,20.2c0,.2-.1.3-.2.3H136l-.5-.3-.7-.2-.9-.2a2.5,2.5,0,0,0-1.3.4,1,1,0,0,0-.4.9c0,.2,0,.5.2.6l.6.5.9.3,1.1.3,1,.5.9.5a2.4,2.4,0,0,1,.6.9,2.1,2.1,0,0,1,.3,1.2,4,4,0,0,1-.3,1.5,2.7,2.7,0,0,1-.9,1.2,3.9,3.9,0,0,1-1.4.8,6.4,6.4,0,0,1-2,.3H132l-1.1-.3-.9-.5-.8-.5.6-1.1.3-.3h.4l.5.2.6.3.7.3,1,.2.9-.2a.5.5,0,0,0,.5-.3.8.8,0,0,0,.4-.4,1.1,1.1,0,0,0,.1-.5,1.4,1.4,0,0,0-.2-.7l-.7-.4-.9-.4-1-.3-1.1-.4-.9-.7a1.5,1.5,0,0,1-.6-.9,2.5,2.5,0,0,1-.3-1.3,3.1,3.1,0,0,1,.3-1.3,4.4,4.4,0,0,1,.8-1.1,4.7,4.7,0,0,1,1.4-.8,5.4,5.4,0,0,1,1.9-.3,6.5,6.5,0,0,1,2.1.4,5,5,0,0,1,1.7,1.1Z"/><path d="M148.8,29.5h-1.9a1.1,1.1,0,0,1-.3-.5l-.2-.8-.9.7-.9.5-.9.3h-1.1l-1.4-.2a2.4,2.4,0,0,1-1.1-.6,2.1,2.1,0,0,1-.6-1,3,3,0,0,1,0-2.6,6.8,6.8,0,0,1,1.2-1.2,7.1,7.1,0,0,1,2.1-.8,14.9,14.9,0,0,1,3.3-.4v-.6a3,3,0,0,0-.5-1.8,2,2,0,0,0-1.4-.5h-1.1l-.8.4-.6.3-.6.2h-.5a.5.5,0,0,1-.3-.4l-.6-.9a7.2,7.2,0,0,1,4.8-1.8,4.3,4.3,0,0,1,3.2,1.2,5.3,5.3,0,0,1,.8,1.5,4.7,4.7,0,0,1,.3,1.7Zm-5.4-1.7h.8l.7-.2.6-.4.6-.5v-2l-2,.2a3.3,3.3,0,0,0-1.3.4,1,1,0,0,0-.7.5,1,1,0,0,0-.2.7,1.2,1.2,0,0,0,.4,1.1A2,2,0,0,0,143.4,27.8Z"/><path d="M151.8,29.5V20.1l-1-.2-.5-.2c-.2-.1-.2-.3-.2-.5V18.1h1.7v-.8a4.8,4.8,0,0,1,.3-1.8,6.4,6.4,0,0,1,.8-1.4l1.4-.8a4.8,4.8,0,0,1,1.8-.3l1.5.2v1.4c0,.2-.1.4-.3.4h-1.5l-.7.4a1.6,1.6,0,0,0-.4.7,3.1,3.1,0,0,0-.1,1v.8h3v2h-2.9v9.4Z"/><path d="M162.4,14.7a1.4,1.4,0,0,1-.2.6l-.4.6-.5.4h-1.4l-.6-.4-.3-.6a1.4,1.4,0,0,1-.2-.6,1.4,1.4,0,0,1,.2-.7,3.3,3.3,0,0,1,.3-.6l.6-.4h1.4a1,1,0,0,1,.5.4,1.3,1.3,0,0,1,.4.6A1.4,1.4,0,0,1,162.4,14.7ZM162,18V29.5h-2.8V18Z"/><path d="M164.9,29.5V18h1.6a.8.8,0,0,1,.6.2.6.6,0,0,1,.2.5l.2,1.4a6.1,6.1,0,0,1,1.4-1.7,3.3,3.3,0,0,1,1.9-.6,2.1,2.1,0,0,1,1.4.4l-.4,2.1c0,.1,0,.2-.1.2h-1.5a2,2,0,0,0-1.5.5,3.6,3.6,0,0,0-1.1,1.3v7.2Z"/></g></g></svg>