<svg width="48" height="48" viewBox="0 0 48 48" fill="none" xmlns="http://www.w3.org/2000/svg">
<path d="M24.2355 39.6323L12.9543 36.4735L10.5 8.25L38.1448 8.30947L35.5647 36.5192L24.2355 39.6323Z" fill="#0B0C0D"/>
<path d="M33.4127 34.7193L35.6177 10.6131L24.3183 10.5879L24.2588 37.2331L33.4127 34.7193Z" fill="#0B0C0D"/>
<path d="M24.9331 14.0469L24.9102 24.5137L28.371 24.5229H28.4122L27.9981 29.0084L24.8988 29.8387L24.8896 33.4344L31.2279 31.6914L32.2023 21.069L28.3778 21.0599L28.387 17.5168L32.5134 17.5259H32.5248L32.8427 14.0652L24.9331 14.0469Z" fill="white"/>
<path d="M20.1827 14.0391L20.6699 29.1904L19.6063 28.9365L19.3867 26.2329L16.5664 26.2283L17.0399 31.663L23.3712 33.4357L23.4147 14.0459L20.1827 14.0391Z" fill="white"/>
</svg>
