<svg width="64" height="64" viewBox="0 0 64 64" fill="none" xmlns="http://www.w3.org/2000/svg">
<g clip-path="url(#clip0_31_499)">
<path fill-rule="evenodd" clip-rule="evenodd" d="M14.7301 22.675H26.8009V23.6298H15.8366V30.8159H26.1471V31.7707H15.8366V39.6604H26.9267V40.6152H14.7301V22.675ZM27.8823 22.675H29.1648L34.8482 30.5647L40.6573 22.675L48.5586 12.6533L35.5775 31.3938L42.2667 40.6152H40.9339L34.8482 32.223L28.7373 40.6152H27.4296L34.1692 31.3938L27.8823 22.675ZM42.7445 23.6298V22.675H56.5003V23.6298H50.1631V40.6152H49.0566V23.6298H42.7445ZM-0.371094 22.675H1.01203L20.0844 51.078L12.2027 40.6152L0.785696 24.0318L0.735406 40.6152H-0.371094V22.675ZM56.785 38.973C56.785 39.1982 56.6182 39.3725 56.3894 39.3725C56.1634 39.3725 55.9938 39.1982 55.9938 38.973C55.9938 38.7477 56.1634 38.5734 56.3894 38.5734C56.6182 38.5734 56.785 38.7477 56.785 38.973ZM58.6608 39.4208C57.9584 39.4208 57.4767 38.9864 57.4767 38.3213H58.0688C58.0768 38.6404 58.311 38.855 58.6555 38.855C59.0403 38.855 59.2583 38.6243 59.2583 38.1926V35.4571H59.8611V38.1952C59.8611 38.973 59.409 39.4208 58.6608 39.4208ZM62.1326 39.4208C61.2714 39.4208 60.6927 38.9783 60.6497 38.2864H61.2471C61.2983 38.6538 61.6589 38.8871 62.1783 38.8871C62.6627 38.8871 63.018 38.6377 63.018 38.2945C63.018 37.9995 62.7919 37.8225 62.2779 37.7018L61.7773 37.5811C61.0749 37.4175 60.7546 37.0796 60.7546 36.511C60.7546 35.8218 61.3198 35.3632 62.1675 35.3632C62.9561 35.3632 63.532 35.8218 63.567 36.4735H62.9803C62.9238 36.1168 62.6116 35.8942 62.1595 35.8942C61.6831 35.8942 61.3655 36.1222 61.3655 36.4708C61.3655 36.7471 61.5701 36.9053 62.076 37.0233L62.504 37.1279C63.3006 37.3129 63.6289 37.6347 63.6289 38.2167C63.6289 38.9569 63.053 39.4208 62.1326 39.4208Z" fill="#0B0C0D"/>
</g>
<defs>
<clipPath id="clip0_31_499">
<rect width="64" height="64" fill="white"/>
</clipPath>
</defs>
</svg>
