<svg width="64" height="64" viewBox="0 0 64 64" fill="none" xmlns="http://www.w3.org/2000/svg">
<path fill-rule="evenodd" clip-rule="evenodd" d="M15.6942 25.5862C15.8953 25.7052 16.018 25.9247 16.018 26.1637L16.0076 34.6906C16.0075 34.7487 15.9927 34.8058 15.9646 34.8561C15.9364 34.9065 15.8959 34.9484 15.8472 34.9778C15.7982 35.0077 15.7421 35.0236 15.6851 35.0236C15.628 35.0236 15.5721 35.0077 15.5231 34.9778L12.3375 33.1056C12.1373 32.9835 12.0128 32.7652 12.0128 32.5288V28.5449C12.0128 28.3071 11.8895 28.0875 11.6887 27.9693L10.3323 27.1675C10.2343 27.1075 10.1212 27.0781 10.0103 27.0781C9.89646 27.078 9.78463 27.1089 9.6862 27.1675L8.32916 27.9697C8.23064 28.0279 8.14886 28.1118 8.09206 28.2129C8.03527 28.314 8.00549 28.4286 8.00571 28.5452V32.5294C8.00571 32.7661 7.88292 32.9833 7.68164 33.1063L4.49408 34.9797C4.39534 35.0421 4.27128 35.0421 4.17254 34.9797C4.07127 34.9213 4.01177 34.8108 4.01177 34.6926L4 26.1644C4.00011 26.0474 4.03011 25.9324 4.08702 25.8309C4.14392 25.7295 4.22574 25.6451 4.32433 25.5862L9.68595 22.42C9.77798 22.3655 9.87939 22.3368 9.98217 22.333H10.0376C10.1414 22.3365 10.2426 22.3663 10.3323 22.42L15.6942 25.5862ZM41.2385 30.7477C41.2887 30.7184 41.3195 30.6634 41.3195 30.604L41.3188 28.4219C41.3188 28.3624 41.2885 28.3075 41.2378 28.2777L39.3959 27.1863C39.3453 27.1563 39.2832 27.1563 39.2327 27.1863L37.392 28.2777C37.3427 28.3075 37.3123 28.3624 37.3123 28.4219V30.604C37.3123 30.6633 37.3427 30.7182 37.3932 30.7477L39.2352 31.8372C39.2598 31.8518 39.2876 31.8594 39.316 31.8594C39.3444 31.8594 39.3722 31.8518 39.3968 31.8372L41.2385 30.7477ZM41.6555 14.3992C41.712 14.3986 41.7676 14.4131 41.817 14.4413L45.0078 16.2692C45.1085 16.3268 45.1925 16.4111 45.251 16.5132C45.3095 16.6152 45.3404 16.7315 45.3407 16.8499V32.6902C45.3407 32.928 45.2166 33.1462 45.0166 33.2658L39.6529 36.4463C39.452 36.5645 39.2055 36.5645 39.0052 36.4463L33.6415 33.2671C33.4411 33.1476 33.3174 32.9292 33.3174 32.6915V26.3357C33.3176 26.2191 33.3476 26.1048 33.4045 26.004C33.4613 25.9031 33.5431 25.8194 33.6415 25.7614L39.0052 22.5844C39.1035 22.526 39.2151 22.4953 39.3287 22.4953C39.4423 22.4953 39.554 22.526 39.6523 22.5844L40.9954 23.3784C41.0298 23.3987 41.0689 23.4096 41.1087 23.4096C41.1485 23.4096 41.1876 23.3989 41.2221 23.3784C41.2565 23.3581 41.2851 23.3287 41.3049 23.2933C41.3248 23.2579 41.3353 23.2178 41.3352 23.1769V14.7319C41.3352 14.6137 41.3962 14.5045 41.495 14.4448C41.5437 14.4156 41.599 14.3998 41.6555 14.3992ZM59.9138 28.1213C59.8573 28.2221 59.776 28.3059 59.6781 28.3644L56.4609 30.2822C56.3609 30.342 56.2368 30.342 56.1368 30.2835C56.0369 30.2237 55.9748 30.1133 55.9748 29.9951V28.4282C55.9748 28.3099 55.9128 28.1995 55.8128 28.1411L54.1329 27.1472C54.0329 27.0874 53.9101 27.0874 53.8101 27.1472L52.1315 28.1411C52.0302 28.2003 51.9694 28.3099 51.9694 28.4289V30.422C51.9694 30.5402 52.0315 30.6507 52.1328 30.7091L57.528 33.8871C57.6294 33.9456 57.6914 34.0573 57.6914 34.1768C57.6914 34.2963 57.6268 34.4068 57.5255 34.4652L54.3025 36.3037C54.1038 36.4166 53.8633 36.4154 53.667 36.2997L48.3389 33.1829C48.1375 33.0647 48.0122 32.8438 48.0122 32.6047V26.2514C48.0122 26.0137 48.135 25.7955 48.3363 25.6759L53.6987 22.4992C53.7973 22.4405 53.9094 22.4096 54.0234 22.4096C54.1374 22.4096 54.2494 22.4405 54.3481 22.4992L59.6776 25.6746C59.8772 25.7939 60 26.0125 60 26.2495V27.7898C60 27.9062 59.9702 28.0204 59.9138 28.1213ZM31.6797 49.6008C31.4948 49.6008 31.3112 49.551 31.1492 49.4553L29.4608 48.4294C29.2087 48.2847 29.3318 48.2334 29.4149 48.2039C29.7512 48.0832 29.8193 48.0559 30.1782 47.8467C30.216 47.8246 30.2653 47.8324 30.304 47.8558L31.601 48.6457C31.6478 48.6717 31.7143 48.6717 31.7577 48.6457L36.815 45.6496C36.8619 45.6224 36.8922 45.5665 36.8922 45.5094V39.5199C36.8922 39.4602 36.8619 39.4069 36.814 39.3769L31.7588 36.3836C31.7119 36.355 31.6498 36.355 31.603 36.3836L26.5487 39.3769C26.4998 39.4056 26.4686 39.4614 26.4686 39.5186V45.5081C26.4686 45.5652 26.4991 45.6198 26.5471 45.6471L27.932 46.4682C28.684 46.8541 29.1435 46.3993 29.1435 45.942V40.0305C29.1435 39.946 29.208 39.881 29.2903 39.881H29.9309C30.0106 39.881 30.0765 39.946 30.0765 40.0305V45.9446C30.0765 46.9736 29.5296 47.5648 28.5789 47.5648C28.2865 47.5648 28.0561 47.5648 27.413 47.24L26.0863 46.4552C25.9251 46.3587 25.7912 46.2203 25.6982 46.0542C25.6051 45.888 25.5561 45.6997 25.5559 45.5081V39.5186C25.5559 39.1288 25.7585 38.7651 26.0863 38.5727L31.1487 35.5754C31.469 35.3896 31.8943 35.3896 32.2121 35.5754L37.2681 38.574C37.4294 38.6703 37.5632 38.8084 37.6563 38.9743C37.7494 39.1403 37.7985 39.3284 37.7985 39.5199V45.5094C37.7985 45.8979 37.5947 46.2603 37.2681 46.4552L32.2121 49.4526C32.05 49.5483 31.8661 49.5985 31.6791 49.5981L31.6797 49.6008ZM33.2412 45.4739C31.0284 45.4739 30.5645 44.4314 30.5645 43.557C30.5645 43.4739 30.6297 43.4076 30.711 43.4076H31.3641C31.4363 43.4076 31.497 43.4615 31.5084 43.5347C31.6072 44.2178 31.9009 44.5624 33.2389 44.5624C34.3048 44.5624 34.758 44.3153 34.758 43.7351C34.758 43.4012 34.6289 43.1531 32.9731 42.9868C31.5882 42.8465 30.7325 42.5333 30.7325 41.3965C30.7325 40.3493 31.5933 39.7257 33.0351 39.7257C34.6542 39.7257 35.4568 40.3025 35.5581 41.542C35.5598 41.5629 35.5572 41.5839 35.5506 41.6036C35.544 41.6234 35.5334 41.6415 35.5197 41.6569C35.5059 41.6723 35.4891 41.6846 35.4704 41.693C35.4518 41.7014 35.4316 41.7058 35.4113 41.7058H34.7542C34.6859 41.7058 34.6264 41.6563 34.6125 41.5888C34.4542 40.8703 34.0719 40.6404 33.0326 40.6404C31.8692 40.6404 31.7337 41.0561 31.7337 41.3679C31.7337 41.746 31.8933 41.8564 33.463 42.0695C35.0175 42.2812 35.7556 42.5801 35.7556 43.7014C35.7556 44.8317 34.8365 45.48 33.2338 45.48L33.2412 45.4739ZM39.3938 39.128H39.5634C39.7027 39.128 39.7292 39.028 39.7292 38.9695C39.7292 38.8162 39.6268 38.8162 39.5697 38.8162H39.3951L39.3938 39.128ZM39.1874 38.637H39.5634C39.6926 38.637 39.9457 38.637 39.9457 38.9331C39.9457 39.1391 39.8173 39.1823 39.74 39.2083C39.8866 39.2184 39.8995 39.3149 39.9188 39.4518L39.9204 39.4632L39.9216 39.4735C39.9318 39.5642 39.9482 39.7094 39.9774 39.7595H39.7457L39.7413 39.7232C39.7297 39.6296 39.7039 39.4194 39.7039 39.4061C39.6887 39.3424 39.6673 39.3112 39.59 39.3112H39.3988V39.7607H39.1874V38.637ZM38.7355 39.1956C38.7355 39.6607 39.1014 40.0375 39.5507 40.0375C40.004 40.0375 40.3698 39.6529 40.3698 39.1956C40.3698 38.7292 39.9989 38.3589 39.5495 38.3589C39.1064 38.3589 38.7343 38.7239 38.7343 39.1943L38.7355 39.1956ZM40.5268 39.1982C40.5268 39.7491 40.0875 40.1986 39.552 40.1986C39.0204 40.1986 38.5773 39.7542 38.5773 39.1982C38.5773 38.6317 39.0305 38.1978 39.552 38.1978C40.0774 38.1978 40.5255 38.633 40.5255 39.1982H40.5268ZM54.0112 27.9023C54.0301 27.891 54.0515 27.885 54.0733 27.885C54.0951 27.885 54.1165 27.891 54.1353 27.9023L55.1645 28.5116C55.203 28.5345 55.2265 28.5766 55.2265 28.6221V29.8421C55.2265 29.8876 55.203 29.9297 55.1645 29.9525L54.1353 30.5618C54.1165 30.5731 54.0951 30.5791 54.0733 30.5791C54.0515 30.5791 54.0301 30.5731 54.0112 30.5618L52.9828 29.9525C52.9636 29.9415 52.9477 29.9255 52.9366 29.906C52.9255 29.8866 52.9195 29.8646 52.9194 29.8421V28.6221C52.9194 28.5766 52.9423 28.5345 52.9815 28.5116L54.0112 27.9023ZM24.7609 22.2962C24.6483 22.2962 24.5378 22.3267 24.4407 22.3847L19.1253 25.5098C18.9228 25.6271 18.8052 25.843 18.8052 26.0762V32.333C18.8056 32.4484 18.8361 32.5617 18.8935 32.6612C18.9509 32.7607 19.0331 32.8429 19.1319 32.8994L24.4407 36.0245C24.5378 36.0825 24.6483 36.113 24.7609 36.113C24.8734 36.113 24.9839 36.0825 25.081 36.0245L30.3931 32.8994C30.5918 32.7822 30.7132 32.5662 30.7132 32.333V26.0762C30.7132 25.843 30.5918 25.6271 30.3931 25.5098L25.081 22.3847C24.9839 22.3267 24.8734 22.2962 24.7609 22.2962Z" fill="#0B0C0D"/>
</svg>
