<svg width="48" height="48" viewBox="0 0 48 48" fill="none" xmlns="http://www.w3.org/2000/svg">
<g clip-path="url(#clip0_11357_11525)">
<path fill-rule="evenodd" clip-rule="evenodd" d="M28.302 38.3015C27.4585 38.3015 26.776 37.6156 26.776 36.7677C26.776 35.9198 27.4585 35.2356 28.302 35.2356C29.1455 35.2356 29.828 35.9198 29.828 36.7677C29.828 37.6156 29.1455 38.3015 28.302 38.3015ZM23.626 41C32.5125 41 31.9578 37.1266 31.9578 37.1266L31.9472 33.1139H23.4685V31.9091H35.3143C35.3143 31.9091 41 32.5582 41 23.5461C41 14.534 36.0388 14.8517 36.0388 14.8517H33.076V19.0353C33.076 19.0353 33.2353 24.0221 28.1935 24.0221H19.783C19.783 24.0221 15.058 23.9471 15.058 28.6141V36.3293C15.058 36.3293 14.3405 41 23.626 41ZM18.6997 8.69849C19.5432 8.69849 20.224 9.38439 20.224 10.2323C20.224 11.0802 19.5432 11.7644 18.6997 11.7644C17.8562 11.7644 17.1738 11.0802 17.1738 10.2323C17.1738 9.38439 17.8562 8.69849 18.6997 8.69849ZM23.374 6C14.4893 6 15.044 9.87341 15.044 9.87341L15.0545 13.8861H23.5333V15.0909H11.6857C11.6857 15.0909 6 14.4418 6 23.4539C6 32.466 10.963 32.1483 10.963 32.1483H13.924V27.9647C13.924 27.9647 13.7648 22.9779 18.8083 22.9779H27.217C27.217 22.9779 31.942 23.0529 31.942 18.3859V10.6707C31.942 10.6707 32.6595 6 23.374 6Z" fill="#0B0C0D"/>
</g>
<defs>
<clipPath id="clip0_11357_11525">
<rect width="35" height="35" fill="white" transform="translate(6 6)"/>
</clipPath>
</defs>
</svg>
