<svg width="64" height="64" viewBox="0 0 64 64" fill="none" xmlns="http://www.w3.org/2000/svg">
<path fill-rule="evenodd" clip-rule="evenodd" d="M20.6577 12.0161C21.4648 11.5488 22.5557 11.4866 23.9414 11.9362C25.3269 12.3857 26.9219 13.3233 28.6258 14.7121C29.347 15.3 30.0819 15.964 30.8225 16.6978C29.35 18.2739 27.8797 20.0923 26.4653 22.1071C24.0193 22.3282 21.7148 22.6958 19.6183 23.1865C19.3548 22.176 19.1488 21.2054 19.0018 20.2847C18.6544 18.1105 18.6423 16.2563 18.9469 14.8282C19.2515 13.3998 19.8507 12.4834 20.6577 12.0161ZM29.5936 13.5202C30.3515 14.138 31.1201 14.8323 31.8917 15.5963C32.6631 14.8325 33.4316 14.1384 34.1894 13.5207C35.9779 12.0628 37.7395 11.0039 39.3679 10.4756C40.996 9.94735 42.5762 9.92605 43.8905 10.6871C45.2049 11.4481 45.9766 12.8312 46.3345 14.5095C46.6925 16.1879 46.6589 18.2474 46.2943 20.5299C46.1397 21.4972 45.9245 22.512 45.6505 23.5643C46.6967 23.8525 47.6811 24.1732 48.5941 24.5228C50.7476 25.3474 52.5431 26.3481 53.8136 27.4984C55.0842 28.6487 55.8916 30.0098 55.8916 31.5299C55.8916 33.0501 55.0842 34.4112 53.8136 35.5615C52.5431 36.7118 50.7476 37.7125 48.5941 38.5371C47.6811 38.8867 46.6966 39.2074 45.6504 39.4957C45.9245 40.5484 46.1398 41.5636 46.2944 42.5312C46.659 44.8136 46.6927 46.8731 46.3347 48.5516C45.9768 50.2298 45.205 51.6129 43.8907 52.374C42.5764 53.135 40.9962 53.1138 39.368 52.5855C37.7397 52.0572 35.9781 50.9982 34.1895 49.5403C33.4317 48.9226 32.6632 48.2285 31.8917 47.4646C31.1201 48.2287 30.3514 48.923 29.5934 49.5408C27.8048 50.9987 26.0432 52.0577 24.4149 52.586C22.7867 53.1143 21.2066 53.1355 19.8922 52.3745C18.5779 51.6134 17.8061 50.2303 17.4482 48.5521C17.0903 46.8736 17.1239 44.8141 17.4885 42.5317C17.6431 41.5639 17.8585 40.5485 18.1327 39.4956C17.0865 39.2074 16.1021 38.8867 15.1891 38.5371C13.0356 37.7125 11.2401 36.7118 9.9696 35.5615C8.69905 34.4112 7.8916 33.0501 7.8916 31.5299C7.8916 30.0098 8.69905 28.6487 9.9696 27.4984C11.2401 26.3481 13.0356 25.3474 15.1891 24.5228C16.1021 24.1732 17.0864 23.8526 18.1325 23.5643C17.8585 22.5118 17.6432 21.4968 17.4887 20.5294C17.1241 18.2469 17.0904 16.1874 17.4484 14.509C17.8063 12.8307 18.578 11.4476 19.8924 10.6866C21.2067 9.92555 22.7869 9.94685 24.415 10.4751C26.0434 11.0034 27.805 12.0624 29.5936 13.5202ZM28.4601 21.9615C29.5888 20.4305 30.7425 19.0364 31.8917 17.8018C33.0409 19.0364 34.1945 20.4305 35.3232 21.9615C34.2019 21.8987 33.0561 21.8663 31.8916 21.8663C30.7271 21.8663 29.5814 21.8987 28.4601 21.9615ZM20.0362 24.6642C21.677 24.2833 23.4578 23.9783 25.3445 23.7634C24.7292 24.7064 24.1279 25.686 23.5453 26.6981C22.9633 27.7091 22.4186 28.7201 21.9123 29.725C21.1546 27.979 20.5276 26.2798 20.0362 24.6642ZM24.8729 27.4668C24.088 28.8302 23.3746 30.1901 22.735 31.5304C23.3747 32.8708 24.0881 34.2307 24.873 35.5942C25.6583 36.9583 26.4762 38.2584 27.3142 39.4846C28.7912 39.5992 30.322 39.6595 31.8916 39.6595C33.4612 39.6595 34.992 39.5992 36.4691 39.4846C37.3069 38.2585 38.1248 36.9586 38.9099 35.5947C39.695 34.2311 40.4084 32.871 41.0482 31.5304C40.4085 30.1899 39.695 28.8299 38.9101 27.4663C38.1247 26.102 37.3065 24.8017 36.4684 23.5752C34.9915 23.4607 33.461 23.4004 31.8916 23.4004C30.3222 23.4004 28.7917 23.4607 27.3149 23.5752C26.4766 24.8018 25.6584 26.1023 24.8729 27.4668ZM18.5483 25.0409C19.173 27.108 20.008 29.2943 21.0406 31.5304C20.0082 33.7661 19.1731 35.9522 18.5485 38.019C17.5453 37.7428 16.6053 37.4367 15.7377 37.1045C13.6869 36.3192 12.08 35.4028 10.9992 34.4243C9.91841 33.4458 9.42564 32.4665 9.42564 31.5299C9.42564 30.5934 9.91841 29.6141 10.9992 28.6356C12.08 27.6571 13.6869 26.7407 15.7377 25.9554C16.6053 25.6232 17.5452 25.3171 18.5483 25.0409ZM21.9123 33.3358C21.1547 35.0815 20.5278 36.7804 20.0364 38.3957C21.6769 38.7766 23.4575 39.0816 25.3438 39.2964C24.7289 38.3538 24.1278 37.3746 23.5454 36.3629C22.9634 35.3518 22.4186 34.3407 21.9123 33.3358ZM19.0016 42.7763C19.1488 41.8553 19.3548 40.8844 19.6185 39.8734C21.7147 40.364 24.0189 40.7316 26.4646 40.9527C27.8792 42.9679 29.3497 44.7867 30.8225 46.3631C30.0819 47.097 29.3469 47.761 28.6256 48.3489C26.9218 49.7377 25.3268 50.6754 23.9413 51.1249C22.5556 51.5745 21.4646 51.5123 20.6576 51.045C19.8505 50.5777 19.2514 49.6612 18.9467 48.2329C18.6421 46.8048 18.6543 44.9506 19.0016 42.7763ZM35.1573 48.3484C34.4362 47.7606 33.7014 47.0968 32.9609 46.3631C34.4336 44.7867 35.9041 42.9679 37.3187 40.9527C39.7643 40.7316 42.0684 40.3641 44.1646 39.8735C44.4282 40.8842 44.6342 41.855 44.7813 42.7758C45.1286 44.9501 45.1408 46.8042 44.8362 48.2324C44.5316 49.6607 43.9324 50.5772 43.1253 51.0445C42.3183 51.5118 41.2273 51.574 39.8417 51.1244C38.4561 50.6749 36.8611 49.7372 35.1573 48.3484ZM31.8917 45.2591C33.0411 44.0242 34.195 42.6298 35.3239 41.0984C34.2024 41.1611 33.0564 41.1936 31.8916 41.1936C30.7269 41.1936 29.5808 41.1611 28.4594 41.0984C29.5883 42.6298 30.7422 44.0243 31.8917 45.2591ZM43.7467 38.3957C42.1062 38.7766 40.3257 39.0816 38.4394 39.2964C39.0543 38.3539 39.6552 37.3749 40.2375 36.3634C40.8196 35.3522 41.3645 34.3409 41.8708 33.3358C42.6284 35.0815 43.2553 36.7804 43.7467 38.3957ZM45.2346 38.019C44.61 35.9522 43.775 33.7661 42.7425 31.5304C43.7751 29.2943 44.6102 27.108 45.2348 25.0409C46.2379 25.3171 47.1779 25.6232 48.0455 25.9554C50.0963 26.7407 51.7032 27.6571 52.784 28.6356C53.8648 29.6141 54.3576 30.5934 54.3576 31.5299C54.3576 32.4665 53.8648 33.4458 52.784 34.4243C51.7032 35.4028 50.0963 36.3192 48.0455 37.1045C47.1779 37.4367 46.2378 37.7429 45.2346 38.019ZM37.318 22.1071C39.7639 22.3282 42.0683 22.6958 44.1647 23.1864C44.4282 22.1761 44.6341 21.2057 44.7811 20.2852C45.1285 18.111 45.1406 16.2568 44.836 14.8287C44.5314 13.4003 43.9323 12.4839 43.1252 12.0166C42.3181 11.5493 41.2272 11.4871 39.8415 11.9367C38.456 12.3862 36.861 13.3238 35.1572 14.7126C34.4361 15.3004 33.7013 15.9642 32.9609 16.6978C34.4334 18.2739 35.9036 20.0923 37.318 22.1071ZM41.8708 29.7249C42.6285 27.9789 43.2555 26.2797 43.7469 24.6642C42.1062 24.2832 40.3253 23.9783 38.4388 23.7634C39.0539 24.7063 39.6551 25.6857 40.2376 26.6976C40.8197 27.7088 41.3645 28.7199 41.8708 29.7249ZM36.2218 31.5298C36.2218 33.928 34.2833 35.8722 31.892 35.8722C29.5007 35.8722 27.5622 33.928 27.5622 31.5298C27.5622 29.1315 29.5007 27.1874 31.892 27.1874C34.2833 27.1874 36.2218 29.1315 36.2218 31.5298Z" fill="#0B0C0D"/>
</svg>
