<svg width="64" height="64" viewBox="0 0 64 64" fill="none" xmlns="http://www.w3.org/2000/svg">
<path fill-rule="evenodd" clip-rule="evenodd" d="M50.4197 12.5609L51.6001 14.1151C51.9101 14.5252 51.8326 15.1132 51.4224 15.4231L50.1691 16.3756C50.397 16.9818 50.5428 17.6289 50.602 18.2898L52.0286 18.4858C52.539 18.5541 52.8945 19.0281 52.8261 19.5386L52.5618 21.4755C52.4934 21.986 52.0194 22.346 51.509 22.2731L49.9503 22.0589C49.6723 22.665 49.3168 23.2211 48.8975 23.7178L49.7726 24.8663C50.0825 25.2765 50.0004 25.8644 49.5903 26.1744L48.0361 27.3548C47.626 27.6647 47.038 27.5826 46.7281 27.177L45.7756 25.9237C45.1649 26.1516 44.5223 26.2974 43.8569 26.3567L43.6609 27.7832C43.5925 28.2936 43.1185 28.6491 42.6081 28.5808L40.6711 28.3164C40.1607 28.2481 39.8052 27.7741 39.8736 27.2636L40.0878 25.7049C39.4862 25.4269 38.9256 25.0714 38.4288 24.6567L37.2803 25.5272C36.8701 25.8371 36.2822 25.7596 35.9723 25.3494L34.7919 23.7953C34.482 23.3851 34.5594 22.7972 34.9696 22.4873L36.2229 21.5348C35.9951 20.9241 35.8492 20.2814 35.79 19.6206L34.3635 19.4246C33.853 19.3563 33.493 18.8823 33.5659 18.3718L33.8302 16.4349C33.9032 15.9244 34.3726 15.5689 34.883 15.6373L36.4417 15.8515C36.7197 15.2499 37.0752 14.6893 37.4899 14.1925L36.6195 13.044C36.3095 12.6384 36.387 12.0505 36.7972 11.7406L38.3513 10.5602C38.7615 10.2502 39.3494 10.3277 39.6593 10.7379L40.6119 11.9912C41.218 11.7634 41.8652 11.6175 42.5261 11.5583L42.722 10.1317C42.7904 9.6213 43.2644 9.26126 43.7748 9.32962L45.7118 9.59396C46.2222 9.66232 46.5823 10.1363 46.5094 10.6468L46.2952 12.2054C46.9013 12.4835 47.4573 12.8389 47.9587 13.2582L49.1072 12.3878C49.5173 12.0733 50.1053 12.1508 50.4197 12.5609ZM17.0949 39.9108V32.3909H20.9688C21.6889 32.3909 22.2358 32.4501 22.6141 32.5777C22.9924 32.7008 23.3023 32.9287 23.5302 33.2614C23.7626 33.5986 23.8811 34.0042 23.8811 34.4828C23.8811 34.8975 23.7899 35.2621 23.6122 35.5629C23.4344 35.8683 23.1883 36.1144 22.8784 36.3013C22.6824 36.4198 22.409 36.52 22.0626 36.5975C22.3406 36.6932 22.5412 36.7798 22.6642 36.8755C22.7508 36.9393 22.8739 37.0715 23.0334 37.272C23.1929 37.4726 23.3023 37.6321 23.357 37.7414L24.4872 39.9154H21.8621L20.6224 37.6229C20.4629 37.3267 20.3262 37.1307 20.2031 37.0441C20.0345 36.9302 19.8431 36.871 19.6334 36.871H19.4283V39.9154H17.0949V39.9108ZM25.2894 53.0047H20.9506L20.3262 55.0465H16.4158L21.0782 42.6545H25.2711L29.9153 55.0465H25.9046L25.2894 53.0047ZM24.4781 50.3203L23.1245 45.863L21.7664 50.3203H24.4781ZM30.8177 42.6545H37.1892C38.5792 42.6545 39.6183 42.9826 40.3065 43.6435C40.9947 44.3043 41.3411 45.2477 41.3411 46.4646C41.3411 47.7179 40.9628 48.6978 40.2108 49.4042C39.4588 50.1107 38.3058 50.4616 36.7607 50.4616H34.6597V55.0465H30.8177V42.6545ZM34.6597 47.9504H35.6031C36.346 47.9504 36.8701 47.8228 37.1709 47.563C37.4717 47.3078 37.6221 46.9751 37.6221 46.5786C37.6221 46.1912 37.4899 45.8585 37.2302 45.5896C36.9704 45.3207 36.4782 45.1839 35.7581 45.1839H34.6597V47.9504ZM42.8907 42.6545H46.7327V55.0465H42.8907V42.6545ZM19.4283 35.4444H20.4082C20.513 35.4444 20.7181 35.408 21.0235 35.3396C21.1785 35.3077 21.3061 35.2302 21.4018 35.1026C21.502 34.975 21.5476 34.8292 21.5476 34.6651C21.5476 34.4235 21.4701 34.2321 21.3152 34.1045C21.1602 33.9723 20.8731 33.9085 20.4492 33.9085H19.4283V35.4444ZM24.9339 32.3909H31.1549V33.9951H27.2673V35.1938H30.8724V36.7251H27.2673V38.2063H31.2689V39.9063H24.9339V32.3909ZM31.8203 37.4224L34.0262 37.2857C34.0718 37.6457 34.172 37.9146 34.3179 38.1015C34.5594 38.4023 34.9013 38.5572 35.3433 38.5572C35.6715 38.5572 35.9313 38.4798 36.109 38.3248C36.2868 38.1699 36.3779 37.9876 36.3779 37.7825C36.3779 37.5865 36.2913 37.4133 36.1227 37.2583C35.9541 37.1034 35.5575 36.9621 34.9332 36.8208C33.9168 36.5929 33.1922 36.2876 32.7546 35.9093C32.3171 35.531 32.0984 35.0479 32.0984 34.46C32.0984 34.0726 32.2123 33.708 32.4356 33.3662C32.6589 33.0244 32.9962 32.7509 33.4474 32.5549C33.8986 32.359 34.5139 32.2633 35.2978 32.2633C36.2594 32.2633 36.9886 32.441 37.4945 32.8011C37.9958 33.1611 38.2966 33.7262 38.3923 34.5101L36.2093 34.6423C36.15 34.3005 36.027 34.0498 35.8447 33.8994C35.6578 33.7445 35.398 33.667 35.0744 33.667C34.8055 33.667 34.6005 33.7262 34.4637 33.8402C34.327 33.9541 34.2586 34.0954 34.2586 34.2595C34.2586 34.378 34.3179 34.4828 34.4273 34.5831C34.5366 34.6788 34.7919 34.7745 35.2021 34.8611C36.2184 35.0798 36.9476 35.3032 37.3851 35.5265C37.8227 35.7498 38.1462 36.0278 38.3422 36.3605C38.5427 36.6887 38.643 37.0624 38.643 37.4726C38.643 37.9557 38.5108 38.3977 38.2419 38.8034C37.9776 39.209 37.6039 39.5189 37.1253 39.7285C36.6468 39.9382 36.0452 40.043 35.316 40.043C34.0399 40.043 33.1512 39.7969 32.6589 39.3047C32.1667 38.8034 31.8887 38.179 31.8203 37.4224ZM38.9803 32.3909H46.049V34.2504H43.6791V39.9108H41.3548V34.2504H38.9803V32.3909ZM31.1595 14.5435C30.3255 14.4797 29.4823 14.4888 28.6483 14.5708C26.0824 14.8169 23.5894 15.7512 21.5294 17.3509C19.1458 19.1967 17.3364 21.9586 16.6391 25.6183L16.4204 26.7623L15.281 26.9628C14.1644 27.1588 13.1663 27.4277 12.2912 27.7695C11.4435 28.0977 10.687 28.5033 10.0261 28.9818C9.4974 29.3647 9.04164 29.7931 8.65425 30.2579C7.45561 31.6936 6.89959 33.4938 6.91326 35.3168C6.92694 37.1672 7.52853 39.0358 8.64058 40.5717C9.05532 41.1414 9.53386 41.6655 10.0808 42.1213C10.6368 42.5816 11.2612 42.9644 11.9631 43.2515C12.3596 43.4156 12.7834 43.5523 13.2255 43.6617V47.0753C12.314 46.9113 11.4754 46.6651 10.6915 46.3416C9.65687 45.9132 8.74084 45.3617 7.93416 44.6872C7.16849 44.0491 6.49853 43.3245 5.92883 42.536C4.41116 40.4395 3.5908 37.8782 3.57257 35.3259C3.55434 32.7464 4.35647 30.1805 6.08835 28.1022C6.64893 27.4277 7.30977 26.8079 8.06633 26.261C8.94593 25.6229 9.95317 25.0851 11.0926 24.643C11.8765 24.3377 12.7151 24.0824 13.5992 23.8774C14.6019 19.894 16.7394 16.8268 19.4876 14.6984C22.0581 12.7068 25.1526 11.5446 28.3384 11.2392C30.011 11.0797 31.7064 11.1527 33.3654 11.4626C33.3289 11.613 33.297 11.7634 33.2788 11.9183L33.2742 11.9457C33.2423 12.2054 33.2286 12.4652 33.2423 12.7296C32.8914 12.8663 32.5632 13.0532 32.267 13.281L32.2533 13.2901C31.8112 13.6228 31.4375 14.0513 31.1595 14.5435ZM55.2735 23.294C55.5288 23.5264 55.7749 23.768 56.0164 24.0278C56.5041 24.5519 56.9644 25.1444 57.3974 25.8052C58.8558 28.0475 59.6032 31.0418 59.5713 33.9723C59.5394 36.8482 58.7646 39.7103 57.1786 41.8159C56.144 43.1877 54.8178 44.3089 53.2272 45.1976C52.1379 45.8083 50.912 46.3142 49.5766 46.7244V43.1923C50.2967 42.9234 50.9666 42.6226 51.5819 42.2808C52.7806 41.6108 53.7604 40.795 54.4942 39.8151C55.6336 38.2975 56.1942 36.1509 56.217 33.9496C56.2443 31.6389 55.6792 29.3191 54.5808 27.6328C54.2663 27.1451 53.9199 26.7076 53.5553 26.3156C53.4141 26.1652 53.2728 26.024 53.1269 25.8872C53.1497 25.6594 53.1588 25.4269 53.1452 25.1945C53.4961 25.0578 53.8242 24.8709 54.1205 24.643L54.1342 24.6339C54.6036 24.2739 54.9955 23.8181 55.2735 23.294ZM43.7156 15.1542C45.8166 15.4413 47.2841 17.3783 46.997 19.4793C46.7099 21.5803 44.7729 23.0524 42.6719 22.7653C40.5709 22.4782 39.0988 20.5412 39.3904 18.4402C39.6821 16.3392 41.6145 14.8671 43.7156 15.1542Z" fill="#0B0C0D"/>
</svg>
