<svg width="64" height="64" viewBox="0 0 64 64" fill="none" xmlns="http://www.w3.org/2000/svg">
<path d="M25.4842 45.6552C25.4842 45.6552 23.5623 46.824 26.8201 47.1583C30.742 47.6583 32.8311 47.5755 37.1718 46.7411C38.0442 47.2754 38.9667 47.7228 39.9265 48.0771C30.1608 52.2521 17.8013 47.8271 25.4826 45.6552H25.4842ZM24.2341 40.2285C24.2341 40.2285 22.1466 41.8145 25.403 42.1505C29.6608 42.5676 32.9999 42.6505 38.7624 41.4833C39.3228 42.0517 40.009 42.4803 40.7655 42.7349C28.9936 46.2411 15.8028 43.0692 24.2341 40.2301V40.2285ZM47.2765 49.7443C47.2765 49.7443 48.6953 50.913 45.6906 51.8318C40.0967 53.5037 22.231 54.0037 17.2217 51.8318C15.4685 51.0818 18.8075 49.9958 19.8779 49.8287C20.9639 49.5786 21.5498 49.5786 21.5498 49.5786C19.6279 48.2427 8.77625 52.3333 16.0403 53.5005C35.9936 56.7568 52.4406 52.0818 47.264 49.7443H47.2765ZM26.3873 34.5504C26.3873 34.5504 17.2873 36.7223 23.131 37.4723C25.6357 37.8067 30.5608 37.7223 35.153 37.3895C38.9092 37.0551 42.6687 36.3894 42.6687 36.3894C42.6687 36.3894 41.3327 36.9738 40.414 37.5583C31.1483 39.9801 13.3638 38.8942 18.4575 36.3894C22.7982 34.302 26.3889 34.5536 26.3889 34.5536L26.3873 34.5504ZM42.6687 43.6505C52.0187 38.8067 47.678 34.1348 44.6718 34.7176C43.9218 34.8848 43.5858 35.0519 43.5858 35.0519C43.5858 35.0519 43.8358 34.552 44.4202 34.3848C50.3484 32.2972 55.0235 40.6458 42.4983 43.9005C42.4983 43.9005 42.5812 43.8176 42.6656 43.6505H42.6687ZM27.3092 56.8411C36.3249 57.4255 50.1015 56.5068 50.4344 52.2474C50.4344 52.2474 49.7671 53.9193 43.0046 55.1693C35.3233 56.588 25.8061 56.4193 20.2123 55.5037C20.2123 55.5037 21.381 56.5036 27.3092 56.8396V56.8411Z" fill="#0B0C0D"/>
<path d="M37.0065 6.99988C37.0065 6.99988 42.1832 12.2593 32.0816 20.1906C23.983 26.6187 30.2456 30.2922 32.0816 34.4673C27.3221 30.2094 23.9003 26.4516 26.2377 22.9469C29.6597 17.7687 39.0941 15.2797 37.0065 6.99988ZM34.3503 30.9609C36.7722 33.7157 33.6831 36.2204 33.6831 36.2204C33.6831 36.2204 39.8613 33.0485 37.0222 29.1234C34.4347 25.3672 32.4284 23.5297 43.2832 17.2687C43.2832 17.2687 26.169 21.5265 34.3503 30.9609Z" fill="#0B0C0D"/>
</svg>
