<svg width="49" height="49" viewBox="0 0 49 49" fill="none" xmlns="http://www.w3.org/2000/svg">
<path fill-rule="evenodd" clip-rule="evenodd" d="M37.1936 29.9949C37.3457 29.9076 37.4721 29.7818 37.5602 29.6301C37.6484 29.4785 37.695 29.3063 37.6955 29.1309L37.7135 23.3439C37.7141 23.1685 37.7608 22.9964 37.8489 22.8447C37.937 22.6931 38.0635 22.5672 38.2156 22.4799L41.3525 20.6779C41.5046 20.5906 41.6769 20.5448 41.8523 20.5451C42.0275 20.5454 42.1997 20.5917 42.3515 20.6796C42.5033 20.7674 42.6292 20.8936 42.7168 21.0455C42.8044 21.1974 42.8505 21.3696 42.8506 21.5449V32.0659C42.8505 32.2418 42.8041 32.4146 42.716 32.5668C42.6278 32.719 42.5011 32.8453 42.3485 32.9329L30.5096 39.7329C30.3584 39.8197 30.1871 39.8655 30.0127 39.8657C29.8383 39.8659 29.6669 39.8204 29.5156 39.7339L20.2246 34.4199C20.0715 34.3325 19.9443 34.2062 19.8557 34.0537C19.7672 33.9013 19.7206 33.7282 19.7206 33.5519V28.2469C19.7206 28.2409 19.7276 28.2369 19.7336 28.2399C19.7386 28.2429 19.7456 28.2399 19.7456 28.2329V28.2269C19.7456 28.2229 19.7476 28.2189 19.7516 28.2169L27.4036 23.8209C27.4106 23.8169 27.4076 23.8059 27.3995 23.8059C27.3974 23.8059 27.3954 23.805 27.3939 23.8035C27.3924 23.802 27.3916 23.8 27.3916 23.7979L27.4066 18.5969C27.4073 18.421 27.3616 18.2481 27.2741 18.0955C27.1866 17.943 27.0605 17.8161 26.9083 17.7279C26.7562 17.6397 26.5835 17.5931 26.4076 17.5929C26.2317 17.5928 26.0588 17.639 25.9066 17.7269L20.2196 21.0039C20.0678 21.0913 19.8957 21.1373 19.7206 21.1373C19.5454 21.1373 19.3733 21.0913 19.2215 21.0039L13.5166 17.7189C13.3646 17.6314 13.1922 17.5854 13.0169 17.5855C12.8414 17.5857 12.6692 17.6319 12.5173 17.7196C12.3655 17.8074 12.2393 17.9335 12.1516 18.0854C12.0639 18.2373 12.0176 18.4095 12.0176 18.5849V27.9849C12.0177 28.1601 11.9717 28.3323 11.8844 28.4841C11.7971 28.636 11.6714 28.7623 11.5199 28.8503C11.3684 28.9383 11.1964 28.9849 11.0212 28.9856C10.846 28.9862 10.6737 28.9408 10.5215 28.8539L7.35556 27.0439C7.20222 26.9563 7.0748 26.8296 6.98627 26.6769C6.89775 26.524 6.85127 26.3505 6.85156 26.1739L6.87957 9.7439C6.87994 9.56877 6.92632 9.39679 7.01407 9.24514C7.1018 9.09357 7.22782 8.96772 7.3795 8.88012C7.53119 8.79252 7.70322 8.74632 7.87838 8.7461C8.05354 8.74587 8.22568 8.7917 8.37759 8.87892L19.2226 15.1079C19.3741 15.195 19.5458 15.2407 19.7206 15.2407C19.8953 15.2407 20.067 15.195 20.2186 15.1079L31.0606 8.87892C31.2127 8.79155 31.3851 8.7458 31.5605 8.7461C31.7359 8.74647 31.9082 8.7929 32.0599 8.88087C32.2117 8.96877 32.3377 9.09515 32.4252 9.2471C32.5127 9.39912 32.5587 9.57155 32.5586 9.7469V26.1809C32.5586 26.3567 32.5124 26.5294 32.4244 26.6817C32.3364 26.8338 32.2099 26.9602 32.0576 27.0479L26.3795 30.3179C26.2271 30.4059 26.1005 30.5325 26.0126 30.685C25.9247 30.8375 25.8786 31.0105 25.879 31.1865C25.8794 31.3626 25.9262 31.5354 26.0149 31.6875C26.1035 31.8396 26.2307 31.9657 26.3836 32.0529L29.5156 33.8359C29.6669 33.9221 29.8382 33.9672 30.0123 33.9669C30.1865 33.9666 30.3575 33.9207 30.5086 33.8339L37.1936 29.9949ZM37.8506 15.2529C37.8507 15.4298 37.8977 15.6034 37.9868 15.7561C38.076 15.9089 38.204 16.0353 38.3579 16.1223C38.5118 16.2095 38.6861 16.2543 38.8629 16.252C39.0398 16.2498 39.2129 16.2008 39.3646 16.1099L42.3646 14.3099C42.5126 14.2212 42.6353 14.0956 42.7204 13.9454C42.8056 13.7952 42.8504 13.6256 42.8506 13.4529V9.78492C42.8502 9.60815 42.8031 9.43467 42.7139 9.28204C42.6247 9.12942 42.4966 9.0032 42.3428 8.9162C42.1889 8.8292 42.0147 8.78457 41.8379 8.78682C41.6612 8.789 41.4882 8.83805 41.3366 8.92895L38.3366 10.7289C38.1884 10.8177 38.0659 10.9432 37.9807 11.0934C37.8956 11.2436 37.8507 11.4132 37.8506 11.5859V15.2539V15.2529Z" fill="#0B0C0D"/>
</svg>
