<svg width="64" height="64" viewBox="0 0 64 64" fill="none" xmlns="http://www.w3.org/2000/svg">
<path fill-rule="evenodd" clip-rule="evenodd" d="M12.2227 8.32129H50.8477C53.4365 8.32129 55.5352 10.42 55.5352 13.0088V51.6338C55.5352 54.2226 53.4365 56.3213 50.8477 56.3213H12.2227C9.63386 56.3213 7.53516 54.2226 7.53516 51.6338V13.0088C7.53516 10.42 9.63386 8.32129 12.2227 8.32129ZM37.2482 51.2105V46.5173C38.0992 47.2311 39.0235 47.7665 40.0213 48.1233C41.019 48.4802 42.0264 48.6586 43.0437 48.6586C43.6405 48.6586 44.1613 48.6049 44.6064 48.4972C45.0514 48.3897 45.4231 48.2406 45.7214 48.0499C46.0197 47.8593 46.2423 47.6345 46.389 47.3753C46.5357 47.1162 46.6091 46.8351 46.6091 46.5321C46.6091 46.1213 46.4917 45.7547 46.257 45.4321C46.0221 45.1094 45.7018 44.8112 45.2959 44.5374C44.8901 44.2637 44.4082 43.9997 43.8507 43.7454C43.2932 43.4912 42.6916 43.2321 42.0461 42.9681C40.4027 42.2837 39.1776 41.4477 38.3706 40.4602C37.5637 39.4726 37.1602 38.2798 37.1602 36.8816C37.1602 35.7865 37.3803 34.8454 37.8205 34.0584C38.2606 33.2713 38.8597 32.6235 39.6177 32.1151C40.3759 31.6067 41.2538 31.2327 42.2514 30.9931C43.2491 30.7537 44.3055 30.6338 45.4207 30.6338C46.5162 30.6338 47.487 30.6998 48.3331 30.8318C49.1792 30.9638 49.9593 31.1667 50.6733 31.4404V35.8257C50.3212 35.5812 49.9373 35.3662 49.5216 35.1803C49.1058 34.9946 48.6779 34.8406 48.2378 34.7183C47.7975 34.5962 47.3598 34.5057 46.9245 34.447C46.4893 34.3884 46.076 34.359 45.6848 34.359C45.1467 34.359 44.6577 34.4104 44.2175 34.513C43.7773 34.6157 43.4057 34.76 43.1024 34.9457C42.7992 35.1315 42.5645 35.3539 42.3981 35.613C42.2319 35.8721 42.1487 36.163 42.1487 36.4856C42.1487 36.8377 42.2417 37.1529 42.4275 37.4316C42.6133 37.7102 42.8774 37.9742 43.2198 38.2236C43.5621 38.4729 43.9778 38.7173 44.4669 38.9569C44.956 39.1965 45.5087 39.4433 46.1249 39.6976C46.9661 40.0495 47.7218 40.4235 48.3918 40.8195C49.0618 41.2155 49.6365 41.6629 50.1157 42.1615C50.5951 42.6602 50.9618 43.2297 51.2162 43.8701C51.4706 44.5105 51.5977 45.256 51.5977 46.1067C51.5977 47.28 51.3751 48.265 50.9301 49.0619C50.485 49.8587 49.881 50.5041 49.1181 50.9978C48.3552 51.4916 47.4674 51.8461 46.455 52.0611C45.4426 52.2763 44.3741 52.3838 43.2491 52.3838C42.0949 52.3838 40.997 52.286 39.9552 52.0905C38.9135 51.8949 38.0112 51.6017 37.2482 51.2105ZM35.3789 34.954H29.3583V52.1026H24.5888V34.954H18.5977V31.1026H35.3789V34.954Z" fill="#0B0C0D"/>
</svg>
